# xmcd CD database file
#
# Track frame offsets:
#	150
#	11304
#	33906
#	50698
#	65756
#	88643
#	102196
#	126602
#	152277
#	172796
#
# Disc length: 2549 seconds
#
# Revision: 0
# Processed by: cddbd v1.5.1PL0 Copyright (c) Steve Scherf et al.
# Submitted via: CDex 1.51
#
DISCID=7509f30a
DTITLE=植原晴子 - Piano Collection Vol. 3 Sorrowful Moments
DYEAR=1900
DGENRE=Classical
TTITLE0=Summer Time
TTITLE1=Nocturne No. 1
TTITLE2=Nocturne No. 2
TTITLE3=Nocturne No. 5
TTITLE4=Nocturne No. 8
TTITLE5=Berceuse sur le nom de Gabriel Faure
TTITLE6=Pavane pour une infante defunte
TTITLE7=1ere Sarabande
TTITLE8=2eme Sarabande
TTITLE9=3eme Sarabande
EXTD=
EXTT0=
EXTT1=
EXTT2=
EXTT3=
EXTT4=
EXTT5=
EXTT6=
EXTT7=
EXTT8=
EXTT9=
PLAYORDER=
